<svg width="1711" height="374" xmlns="http://www.w3.org/2000/svg" class="icon">
 <defs>
  <style type="text/css"/>
 </defs>
 <g>
  <title>background</title>
  <rect x="-1" y="-1" width="1713" height="376" id="canvas_background" fill="none"/>
 </g>
 <g>
  <title>Layer 1</title>
  <path d="m726.226908,323.175543c0,4.68435 -2.74013,5.98065 -6.58245,2.65152c-4.97511,-4.31609 -56.47132,-48.65538 -56.47132,-48.65538l63.05377,-31.2732l0,77.27706zm-230.891,-276.19996c6.82738,2.29799 343.58871,116.03345 350.2477,118.25778c5.61805,1.91498 6.88862,6.56987 0.19901,9.14774l-75.3002,28.91629l-44.63821,17.1465l-217.89448,-153.34622c-2.95445,-2.07702 -6.32222,1.76768 -4.20971,4.00674c2.14312,2.19487 156.1572,161.84581 156.1572,161.84581l0,0.02946l9.00112,9.54547l-11.87903,6.12796l-98.82863,50.98283c-5.74051,2.96086 -13.25675,0.48611 -14.91002,-6.39311l-57.66535,-238.10646c-1.56142,-6.48149 2.92384,-10.4735 9.7206,-8.16079" fill="#ffffff" class="selected" id="svg_1" stroke="null"/>
  <text fill="#ffffff" stroke-width="0" x="546.657973" y="460.572826" id="svg_2" font-size="24" font-family="'Times New Roman', Times, serif" text-anchor="start" xml:space="preserve" stroke="null" transform="matrix(14.112043904390873,0,0,14.452987381239526,-7704.160330422214,-6352.9219945656905) ">Air</text>
  <text fill="#ffffff" stroke-width="0" x="603.91403" y="460.553926" id="svg_3" font-size="24" font-family="'Times New Roman', Times, serif" text-anchor="start" xml:space="preserve" stroke="null" transform="matrix(14.112043904390873,0,0,14.452987381239526,-7704.160330422214,-6352.9219945656905) ">Wings</text>
 </g>
</svg>