<svg width="925" height="374" xmlns="http://www.w3.org/2000/svg" class="icon">
 <defs>
  <style type="text/css"/>
 </defs>
 <g>
  <title>background</title>
  <rect fill="none" id="canvas_background" height="376" width="927" y="-1" x="-1"/>
 </g>
 <g>
  <title>Layer 1</title>
  <path stroke="null" id="svg_1" class="selected" fill="#ffffff" d="m763.56024,323.17554c0,4.68435 -2.74013,5.98065 -6.58245,2.65152c-4.97511,-4.31609 -56.47132,-48.65538 -56.47132,-48.65538l63.05377,-31.2732l0,77.27706zm-230.891,-276.19996c6.82738,2.29799 343.58871,116.03345 350.2477,118.25778c5.61805,1.91498 6.88862,6.56987 0.19901,9.14774l-75.3002,28.91629l-44.63821,17.1465l-217.89448,-153.34622c-2.95445,-2.07702 -6.32222,1.76768 -4.20971,4.00674c2.14312,2.19487 156.1572,161.84581 156.1572,161.84581l0,0.02946l9.00112,9.54547l-11.87903,6.12796l-98.82863,50.98283c-5.74051,2.96086 -13.25675,0.48611 -14.91002,-6.39311l-57.66535,-238.10646c-1.56142,-6.48149 2.92384,-10.4735 9.7206,-8.16079"/>
  <text transform="matrix(14.112043904390873,0,0,14.452987381239526,-7704.160330422214,-6352.9219945656905) " stroke="null" xml:space="preserve" text-anchor="start" font-family="'Times New Roman', Times, serif" font-size="24" id="svg_2" y="460.581126" x="549.020021" stroke-width="0" fill="#ffffff">Air</text>
 </g>
</svg>