<?xml version="1.0" standalone="no"?><!DOCTYPE svg PUBLIC "-//W3C//DTD SVG 1.1//EN" "http://www.w3.org/Graphics/SVG/1.1/DTD/svg11.dtd"><svg t="1574150981904" class="icon" viewBox="0 0 1024 1024" version="1.1" xmlns="http://www.w3.org/2000/svg" p-id="1311" data-spm-anchor-id="a313x.7781069.0.i4" xmlns:xlink="http://www.w3.org/1999/xlink" width="200" height="200"><defs><style type="text/css"></style></defs><path d="M634.112 807.808c0 10.176-5.728 12.992-13.76 5.76-10.4-9.376-118.048-105.696-118.048-105.696l131.808-67.936v167.872zM151.456 207.808c14.272 4.992 718.24 252.064 732.16 256.896 11.744 4.16 14.4 14.272 0.416 19.872l-157.408 62.816-93.312 37.248L177.824 251.52c-6.176-4.512-13.216 3.84-8.8 8.704 4.48 4.768 326.432 351.584 326.432 351.584v0.064l18.816 20.736-24.832 13.312-206.592 110.752c-12 6.432-27.712 1.056-31.168-13.888L131.136 225.536c-3.264-14.08 6.112-22.752 20.32-17.728" p-id="1312" fill="#ffffff" data-spm-anchor-id="a313x.7781069.0.i2" class="selected"></path></svg>