<?xml version="1.0" standalone="no"?><!DOCTYPE svg PUBLIC "-//W3C//DTD SVG 1.1//EN" "http://www.w3.org/Graphics/SVG/1.1/DTD/svg11.dtd"><svg t="1576822289680" class="icon" viewBox="0 0 1024 1024" version="1.1" xmlns="http://www.w3.org/2000/svg" p-id="2638" xmlns:xlink="http://www.w3.org/1999/xlink" width="128" height="128"><defs><style type="text/css"></style></defs><path d="M956.673687 719.710005c-1.788741 55.811109 2.521044 111.646229-0.636264 167.469343-0.660273 11.560787-1.368567 22.809445-4.717953 33.902037a94.371076 94.371076 0 0 1-11.836901 25.210439 111.394124 111.394124 0 0 1-40.660837 36.85526 114.887571 114.887571 0 0 1-52.629792 13.649652c-28.139652 0.468194-56.279303 1.272527-84.418954 1.716711q-85.523412 1.356562-171.070834 1.428592c-113.326924 0.228094-226.653849-0.696288-339.980774-1.068443l-43.842153-0.108045H186.938968c-6.362635 0-13.889751 1.200497-19.976271-0.624258-10.3843-3.145302-21.380853-5.390232-31.128889-10.276255-10.060166-5.054093-18.787779-12.53319-26.530986-20.62454-14.742104-15.402378-25.414523-34.550306-33.169734-54.310488q-2.845178-7.202982-5.306197-14.634059-1.200497-3.673521-2.400994-7.383057a28.7399 28.7399 0 0 1-0.924383-9.171798v-43.566039q0-168.981969-0.552229-337.975943-0.084035-20.900654-0.204084-41.801309c-0.084035-15.450397-24.009942-15.474407-24.009942 0v1.560647a12.004971 12.004971 0 0 0 10.40831 11.788881c5.318202 0.636263 12.281085-2.617084 13.205468-8.595559a1154.109874 1154.109874 0 0 1 42.221482-180.554761 1348.542381 1348.542381 0 0 1 67.79207-170.470586q22.401276-47.011466 47.839809-92.438275h-20.74459c5.666346 9.519942 11.788881 18.775774 16.626885 28.81193l20.732584-12.113015c-5.882436-8.06734-12.004971-16.47082-15.414382-25.906727l-21.945087 9.255832c31.765153 55.222866 61.225351 111.958358 84.034796 171.515018q9.748036 25.522568 17.767357 51.621374a12.34111 12.34111 0 0 0 11.572792 8.811649q148.549509 3.93763 297.159042 1.800746 37.719618-0.552229 75.439237-1.500622c6.002485-0.156065 13.829726 0.888368 19.207953-2.244929 6.314615-3.601491 7.959296-10.636404 10.19222-17.035054 3.673521-10.540364 6.362635-21.392858 9.603977-32.053272 1.512626-4.910033 3.145302-9.796056 5.066097-14.56203 0.19208-0.468194 0.384159-0.924383 0.576239-1.404581 1.080447-2.737133-0.720298 1.668691-0.07203 0.16807 1.992825-4.585899 3.949635-9.183803 6.002486-13.769702q8.883678-20.264391 18.175525-40.336702c6.398649-13.781706 12.797299-27.611433 20.276396-40.900935 13.433562-23.805857 25.846702-48.163943 39.460339-71.861756h-20.708575a43.01381 43.01381 0 0 1 2.26894 4.20174c-0.468194-1.080447-0.408169-1.260522-0.180075 0v-6.386644 0.204084l11.572792-8.811648h-0.120049l8.487514 3.517456c2.893198 2.737133 1.008418 1.90879 0.648268 0.432179 0.552229 2.24493-0.720298-2.400994-0.708293-2.400994l-21.969097 9.219817a33.541888 33.541888 0 0 1 2.533049 4.633919l21.957092-9.243827a16.37478 16.37478 0 0 1-2.533049-4.633919l-21.957092 9.243827c24.598185 48.368027 46.291167 98.332716 68.22425 147.937256q9.195808 20.792609 18.247555 41.657248 4.15372 9.603977 8.25942 19.207954l3.601491 8.511524 1.932801 4.549884 0.756313 1.776736c1.260522 2.977233-0.972403-2.304954 0.264109 0.624258 8.787639 20.888649 16.806959 41.525194 23.325658 63.278201a983.903398 983.903398 0 0 1 31.537059 143.567446c1.428592 10.16821 1.200497 20.228376 1.272527 30.492626l1.164482 134.635747c0.288119 34.574316 0.108045 69.184647 0.864358 103.758963v1.764731c0.132055 15.438392 24.141996 15.474407 24.009941 0l-0.732303-88.620695-1.200497-140.686253c-0.084035-10.804474 0.264109-21.837042-0.276114-32.689535-0.276114-5.654341-1.416587-11.356702-2.22092-16.951019q-2.569064-17.947431-5.834416-35.786818-6.566719-36.014912-15.822551-71.417571c-7.311027-28.391756-15.714507-56.219278-26.85512-83.302493-10.40831-25.210439-21.260803-50.264813-32.209337-75.247157-23.085559-52.701822-46.351192-105.439659-71.597645-157.157072q-2.941218-6.002485-6.002486-12.004971c-6.11053-12.004971-26.290886-3.685526-21.945087 9.255832a37.899693 37.899693 0 0 0 4.958053 10.372295c3.505451 4.801988 9.159793 7.467092 14.994209 4.910033 5.078103-2.232925 9.051748-8.463504 6.950878-14.165865a69.84492 69.84492 0 0 0-4.958053-10.372295c-6.590729-11.680837-26.050787-3.91362-21.909072 9.291847 2.19691 6.986893 5.714366 16.47082 14.850149 16.038641 4.705949-0.216089 10.804474-3.529461 11.572792-8.811648 0.876363-6.410654-1.344557-11.008558-4.477854-16.47082a12.113016 12.113016 0 0 0-20.732585 0c-11.584797 20.180356-22.209196 40.876926-33.481863 61.225351-6.854838 12.377125-13.529602 24.718235-19.640132 37.479519q-17.035054 35.606743-32.413422 72.029824a210.795282 210.795282 0 0 0-7.659171 21.993107c-1.800746 6.08652-3.469437 12.209055-5.306197 18.283571-0.876363 2.881193-1.776736 5.750381-2.749138 8.595559q-0.576239 1.704706-1.200497 3.385401-0.456189 1.260522-0.936388 2.521044-0.984408 2.773148-0.516214 1.200497l4.309785-4.309784 1.704705-0.516214-2.989237 0.084035-4.970058 0.132055-7.959296 0.192079-19.880231 0.456189q-18.847804 0.408169-37.707614 0.708293-37.623579 0.612254-75.247157 0.828343-74.202725 0.432179-148.405449-0.672278-42.653661-0.684283-85.343337-1.884781l11.572791 8.811649c-19.207953-62.629933-46.363197-122.570752-77.179957-180.266642q-13.109428-24.550165-27.047199-48.644141c-6.590729-11.452742-26.747075-3.829586-21.945087 9.255832 4.24976 11.584797 10.600389 21.716992 17.827382 31.633098 9.051748 12.41314 27.539403 1.968815 20.732584-12.113015-4.801988-10.000141-10.948533-19.207953-16.626884-28.81193-4.525874-7.611151-16.290745-7.971301-20.732585 0a1578.893761 1578.893761 0 0 0-81.429717 168.393725 1262.742854 1262.742854 0 0 0-58.368168 177.241389q-12.653239 51.285235-20.40845 103.602898l23.577763 3.193323v-1.560647h-24.009942q0.900373 174.072077 0.756313 348.144154v65.295036c0 7.299022-0.984408 15.450397 0.876363 22.50932a232.152125 232.152125 0 0 0 27.851532 64.034515c12.761284 20.084316 30.516636 39.988558 52.209618 50.588947 11.044573 5.402237 22.809445 8.271425 34.538301 11.848906 7.347042 2.24493 14.405965 1.95681 21.969097 1.968815h21.933082c116.676311 0.19208 233.364628 1.200497 350.040938 1.200497q87.492227 0 174.984455-0.972403 43.830148-0.552229 87.636287-1.488616c23.901897-0.516214 48.019883 0.252104 71.057422-7.202982 40.672841-13.205468 74.899013-44.898591 87.636287-86.171681 3.721541-12.004971 4.801988-24.478135 5.546296-37.011325 0.900373-14.405965 1.296537-28.81193 1.404582-43.217895 0.204085-28.511806-0.732303-57.011606-0.960398-85.511407-0.108045-14.2499 0-28.499801 0.432179-42.737696 0.468194-15.414383-23.541748-15.414383-24.033951 0.060025z" fill="#8a8a8a" p-id="2639"></path><path d="M66.949285 733.299632c33.830008-28.043612 67.335881-56.495393 100.841755-84.887149q25.006354-21.164764 50.108748-42.221482 12.809304-10.720439 25.678633-21.380853c8.079345-6.686769 15.954606-14.309925 24.778259-19.976271a77.612136 77.612136 0 0 1 52.005534-12.317101 63.518301 63.518301 0 0 1 22.497315 7.551127c8.40348 4.874018 14.778119 12.004971 21.368848 19.207953 26.68705 28.95599 48.704167 61.68154 68.428334 95.655608 9.976131 17.155103 19.388028 34.634341 28.66787 52.173603 8.40348 15.882576 18.283571 30.98483 32.221342 42.605641 14.405965 12.004971 31.729138 20.40845 50.684987 21.813032 20.060306 1.500621 41.069005-5.582311 57.4798-16.806959s30.86478-26.062792 45.486834-39.532369c13.913761-12.809304 27.803512-25.666628 42.401557-37.695608a303.041478 303.041478 0 0 1 44.418392-30.86478q5.798401-3.241342 11.764872-6.15855 3.349387-1.632676 6.746793-3.145302c0.888368-0.396164 1.872775-0.744308 2.737133-1.200497-0.828343 0.420174 2.160895-1.200497 0.780324-0.732304 3.505451-1.200497 8.643579-0.480199 12.329105-0.564233q6.578724-0.156065 13.205467 0c31.561068 0.912378 64.478698 8.739619 86.687895 32.065277 27.227274 28.607845 47.023471 62.221764 68.704448 94.959319 5.534292 8.40348 11.248658 16.602875 17.251143 24.646205 3.877606 5.186147 10.3843 7.839246 16.4228 4.309784 5.114118-2.989238 8.2114-11.200638 4.309784-16.4228-24.8743-33.289784-44.418392-70.241084-70.553213-102.630495-11.896926-14.742104-24.68222-29.280124-40.900936-39.376304-14.862154-9.255832-31.933222-15.090248-49.112335-18.175526a235.297428 235.297428 0 0 0-53.194026-3.193322c-4.862013 0.240099-9.267837 0.624258-13.817721 2.521043-5.090108 2.112875-10.12019 4.345799-15.066239 6.782809a245.885812 245.885812 0 0 0-24.862294 14.22589c-32.689536 21.272808-60.745152 48.704167-89.473048 74.911018-13.745692 12.53319-27.467373 26.8071-44.886586 33.481864a64.922882 64.922882 0 0 1-27.983587 4.609909 16.314755 16.314755 0 0 1-3.601491-0.432179c-2.160895-0.468194-4.309785-0.888368-6.434664-1.488617s-4.17773-1.272527-6.20657-2.040845a38.98014 38.98014 0 0 1-4.285775-1.9328c-14.634059-7.335037-26.086802-19.111914-34.68236-32.833595-10.540364-16.806959-18.931839-35.162559-28.655866-52.497738-19.928252-35.510704-42.017398-69.880935-68.356303-100.973809-13.505592-15.894581-27.395343-32.221342-47.023471-40.504772-18.811789-7.935286-40.360712-8.499519-59.55666-3.781565a100.445591 100.445591 0 0 0-29.940397 13.049403c-9.603977 6.15855-18.139511 14.22589-26.90314 21.476893q-26.266876 21.716992-52.305658 43.710098c-33.986072 28.64386-67.804075 57.491805-101.886187 86.027621q-12.581209 10.528359-25.210439 21.008699c-4.994068 4.141715-4.285775 12.689254 0 16.975029 4.946048 4.946048 12.004971 4.15372 16.975029 0zM787.919812 385.983821A75.379212 75.379212 0 1 1 653.812283 425.023986l-2.977233 5.186148 1.356562-0.696288-9.027738-5.186148a75.367207 75.367207 0 0 1-61.693545 81.969941c-37.21541 6.890853-74.814978-16.51884-85.535417-52.629792a75.943445 75.943445 0 0 1 13.109428-68.428334c2.016835-2.533049 2.473024-6.002485 0-8.487514-2.088865-2.088865-6.458674-2.545054-8.487514 0a88.764754 88.764754 0 0 0-18.259561 71.357546 87.456212 87.456212 0 0 0 92.582335 71.009403 87.312153 87.312153 0 0 0 80.289245-94.83927c-0.408169-4.609909-4.801988-7.371052-9.027738-5.186147-3.517456 1.800746-4.237755 4.24976-4.513869 8.06734a80.781449 80.781449 0 0 0-0.09604 9.772047 90.037281 90.037281 0 0 0 2.497034 17.059063 85.835541 85.835541 0 0 0 13.205468 28.81193 87.384183 87.384183 0 0 0 155.284297-24.898309c8.40348-27.815517 1.88478-57.875964-16.086661-80.433305-2.016835-2.533049-6.374639-2.112875-8.487514 0-2.509039 2.509039-2.02884 6.002485 0 8.487514z" fill="#8a8a8a" p-id="2640"></path></svg>